{"glyphs":{"0":{"ha":1017,"x_min":-34,"x_max":1051,"o":"m 780 478 l 644 478 q 614 619 661 561 q 484 678 568 678 q 327 619 399 678 q 237 478 256 561 l 373 478 q 372 475 373 477 q 401 331 354 391 q 532 271 448 271 q 689 331 616 271 q 779 475 761 391 q 780 478 780 477 m 102 478 l -34 478 q 176 810 8 673 q 541 949 345 949 q 847 810 738 949 q 916 478 956 673 l 1051 478 q 1050 475 1051 477 q 840 139 1008 278 q 475 0 671 0 q 169 139 278 0 q 101 475 59 278 q 102 478 102 477 z "},"1":{"ha":339,"x_min":-35,"x_max":372,"o":"m 237 475 l 372 475 l 271 0 l 0 0 l 101 475 l -35 475 l 52 882 l 338 949 l 237 475 z "},"2":{"ha":814,"x_min":0,"x_max":804,"o":"m 661 475 l 796 475 q 747 429 774 451 q 513 339 639 339 l 377 339 q 351 329 363 339 q 336 305 339 319 l 329 271 l 804 271 l 746 0 l 0 0 l 65 305 q 153 475 85 401 l 17 475 q 64 521 38 499 q 299 610 173 610 l 435 610 q 461 620 449 610 q 476 644 473 630 q 471 668 479 659 q 450 678 464 678 l 9 678 l 66 949 l 507 949 q 704 860 633 949 q 747 644 774 770 q 661 475 727 549 z "},"3":{"ha":814,"x_min":-35,"x_max":831,"o":"m 661 475 l 797 475 q 796 475 796 475 q 811 305 831 400 q 675 90 784 179 q 441 0 567 0 l 0 0 l 58 271 l 498 271 q 525 281 513 271 q 540 305 536 291 q 535 329 543 319 q 513 339 527 339 l 72 339 l 101 475 l -35 475 l -6 610 l 435 610 q 461 620 449 610 q 476 644 473 630 q 471 668 479 659 q 450 678 464 678 l 9 678 l 66 949 l 507 949 q 704 860 633 949 q 747 644 774 770 q 661 475 727 550 z "},"4":{"ha":814,"x_min":-35,"x_max":846,"o":"m 100 472 l -35 472 l 66 949 l 338 949 l 265 610 l 401 610 l 473 949 l 745 949 l 672 610 l 740 610 l 711 472 l 846 472 l 818 339 l 750 339 l 678 0 l 407 0 l 479 339 l 72 339 l 100 472 z "},"5":{"ha":814,"x_min":-19,"x_max":831,"o":"m 151 475 l 16 475 q 1 644 -19 549 l 66 949 l 812 949 l 755 678 l 280 678 l 273 644 q 277 620 269 630 q 299 610 285 610 l 435 610 q 631 521 561 610 q 660 475 648 499 l 795 475 q 811 305 831 401 q 675 90 784 179 q 441 0 567 0 l 0 0 l 58 271 l 498 271 q 525 281 513 271 q 540 305 536 291 q 535 329 543 319 q 513 339 527 339 l 377 339 q 180 429 251 339 q 151 475 163 451 z "},"6":{"ha":814,"x_min":-35,"x_max":831,"o":"m 513 339 l 343 339 l 336 305 q 341 281 333 291 q 363 271 349 271 l 498 271 q 525 281 513 271 q 540 305 536 291 q 535 329 543 319 q 513 339 527 339 m 660 475 l 795 475 q 811 305 831 401 q 675 90 784 179 q 441 0 567 0 l 305 0 q 109 90 179 0 q 65 305 38 179 l 101 475 l -35 475 l 1 644 q 137 860 28 770 q 372 949 245 949 l 745 949 l 687 678 l 314 678 q 288 668 300 678 q 273 644 275 659 l 265 610 l 435 610 q 631 521 561 610 q 660 475 648 499 z "},"7":{"ha":814,"x_min":0,"x_max":812,"o":"m 495 475 l 631 475 l 312 0 l 0 0 l 319 475 l 183 475 l 319 678 l 9 678 l 66 949 l 812 949 l 495 475 z "},"8":{"ha":814,"x_min":-19,"x_max":831,"o":"m 450 678 l 314 678 q 288 668 300 678 q 273 644 275 659 q 277 620 269 630 q 299 610 285 610 l 435 610 q 461 620 449 610 q 476 644 473 630 q 471 668 479 659 q 450 678 464 678 m 513 339 l 377 339 q 351 329 363 339 q 336 305 339 319 q 341 281 333 291 q 363 271 349 271 l 498 271 q 525 281 513 271 q 540 305 536 291 q 535 329 543 319 q 513 339 527 339 m 661 475 l 797 475 q 796 475 796 475 q 811 305 831 400 q 675 90 784 179 q 441 0 567 0 l 305 0 q 109 90 179 0 q 65 305 38 179 q 152 475 85 400 l 152 475 l 16 475 q 1 644 -19 550 q 137 860 28 770 q 372 949 245 949 l 507 949 q 704 860 633 949 q 747 644 774 770 q 661 475 727 550 z "},"9":{"ha":814,"x_min":-19,"x_max":848,"o":"m 299 610 l 469 610 l 476 644 q 471 668 479 659 q 450 678 464 678 l 314 678 q 288 668 300 678 q 273 644 275 659 q 277 620 269 630 q 299 610 285 610 m 150 478 l 14 478 q 1 644 -19 551 q 137 860 28 770 q 372 949 245 949 l 507 949 q 704 860 633 949 q 747 644 774 770 l 712 478 l 848 478 l 811 305 q 675 90 784 179 q 441 0 567 0 l 68 0 l 125 271 l 498 271 q 525 281 513 271 q 540 305 536 291 l 547 339 l 377 339 q 180 429 251 339 q 150 478 162 452 z "},"\u0000":{"ha":0,"x_min":0,"x_max":0,"o":""}," ":{"ha":345,"x_min":0,"x_max":0,"o":""},"!":{"ha":339,"x_min":-35,"x_max":372,"o":"m 329 271 l 271 0 l 0 0 l 58 271 l 329 271 m 101 475 l -35 475 l 66 949 l 338 949 l 237 475 l 372 475 l 343 339 l 72 339 l 101 475 z "},"\"":{"ha":678,"x_min":-20,"x_max":677,"o":"m 338 949 l 280 678 l -20 543 l 66 949 l 338 949 m 677 949 l 619 678 l 319 543 l 406 949 l 677 949 z "},"#":{"ha":1017,"x_min":-20,"x_max":1036,"o":"m 508 475 l 522 543 l 387 543 l 372 475 l 508 475 m 779 475 l 915 475 l 901 407 l 1036 407 l 979 136 l 843 136 l 814 0 l 543 0 l 572 136 l 436 136 l 407 0 l 136 0 l 165 136 l 29 136 l 87 407 l 222 407 l 237 475 l 101 475 l 115 543 l -20 543 l 37 814 l 173 814 l 202 949 l 473 949 l 444 814 l 580 814 l 609 949 l 880 949 l 851 814 l 987 814 l 929 543 l 793 543 l 779 475 m 508 475 l 494 407 l 629 407 l 644 475 l 508 475 z "},"$":{"ha":814,"x_min":-20,"x_max":831,"o":"m 661 472 l 797 472 q 811 305 831 399 q 675 90 784 179 q 510 7 597 25 l 479 -136 l 208 -136 l 237 0 l 0 0 l 58 271 l 498 271 q 525 281 513 271 q 540 305 536 291 q 535 329 543 319 q 513 339 527 339 l 377 339 q 180 429 251 339 q 153 472 164 450 l 18 472 q 1 644 -20 547 q 137 860 28 770 q 302 943 215 924 l 332 1085 l 604 1085 l 575 949 l 812 949 l 755 678 l 314 678 q 288 668 300 678 q 273 644 275 659 q 277 620 269 630 q 299 610 285 610 l 435 610 q 631 521 561 610 q 661 472 650 498 z "},"%":{"ha":814,"x_min":-97,"x_max":909,"o":"m 494 475 l 630 475 l 215 -136 l -97 -136 l 318 475 l 182 475 l 597 1085 l 909 1085 l 494 475 m 804 271 l 746 0 l 475 0 l 532 271 l 804 271 m 338 949 l 280 678 l 9 678 l 66 949 l 338 949 z "},"&":{"ha":882,"x_min":-19,"x_max":915,"o":"m 363 271 l 532 271 l 547 339 l 377 339 q 351 329 363 339 q 336 305 339 319 q 341 281 333 291 q 363 271 349 271 m 152 475 l 16 475 q 1 644 -19 550 q 137 860 28 770 q 372 949 245 949 l 473 949 l 416 678 l 314 678 q 288 668 300 678 q 273 644 275 659 q 277 620 269 630 q 299 610 285 610 l 469 610 l 498 746 l 783 814 l 740 610 l 808 610 l 779 475 l 915 475 l 886 339 l 818 339 l 804 271 l 871 271 l 814 0 l 305 0 q 109 90 179 0 q 65 305 38 179 q 152 475 85 400 l 152 475 z "},"'":{"ha":339,"x_min":-20,"x_max":338,"o":"m 338 949 l 280 678 l -20 543 l 66 949 l 338 949 z "},"(":{"ha":543,"x_min":-34,"x_max":541,"o":"m 237 478 l 373 478 q 372 475 373 477 q 401 331 354 391 q 532 271 448 271 l 475 0 q 169 139 278 0 q 101 475 59 278 q 102 478 102 477 l -34 478 q 176 810 8 673 q 541 949 345 949 l 484 678 q 327 619 399 678 q 237 478 256 561 z "},")":{"ha":543,"x_min":0,"x_max":575,"o":"m 439 472 l 575 472 q 366 139 532 277 q 0 0 197 0 l 58 271 q 214 331 142 271 q 304 472 285 390 l 168 472 q 169 475 169 473 q 140 619 186 559 q 9 678 93 678 l 66 949 q 372 810 263 949 q 440 475 481 671 q 439 472 440 473 z "},"*":{"ha":746,"x_min":-35,"x_max":701,"o":"m 498 746 l 701 746 l 644 475 l 440 475 l 397 271 l 125 271 l 169 475 l -35 475 l 23 746 l 227 746 l 270 949 l 541 949 l 498 746 z "},"+":{"ha":746,"x_min":-35,"x_max":779,"o":"m 644 475 l 779 475 l 750 339 l 547 339 l 504 136 l 233 136 l 275 339 l 72 339 l 101 475 l -35 475 l -6 610 l 197 610 l 241 814 l 512 814 l 469 610 l 672 610 l 644 475 z "},",":{"ha":339,"x_min":-29,"x_max":329,"o":"m 329 271 l 271 0 l -29 -136 l 58 271 l 329 271 z "},"-":{"ha":543,"x_min":-35,"x_max":576,"o":"m 440 475 l 576 475 l 547 339 l 72 339 l 101 475 l -35 475 l -6 610 l 469 610 l 440 475 z "},".":{"ha":339,"x_min":0,"x_max":329,"o":"m 329 271 l 271 0 l 0 0 l 58 271 l 329 271 z "},"/":{"ha":814,"x_min":-97,"x_max":909,"o":"m 494 475 l 630 475 l 215 -136 l -97 -136 l 318 475 l 182 475 l 597 1085 l 909 1085 l 494 475 z "},":":{"ha":339,"x_min":0,"x_max":329,"o":"m 329 271 l 271 0 l 0 0 l 58 271 l 329 271 m 329 694 l 271 423 l 0 423 l 58 694 l 329 694 z "},";":{"ha":339,"x_min":-29,"x_max":329,"o":"m 329 271 l 271 0 l -29 -136 l 58 271 l 329 271 m 329 694 l 271 423 l 0 423 l 58 694 l 329 694 z "},"<":{"ha":543,"x_min":-34,"x_max":541,"o":"m 237 478 l 373 478 q 372 475 373 477 q 401 331 354 391 q 532 271 448 271 l 475 0 q 169 139 278 0 q 101 475 59 278 q 102 478 102 477 l -34 478 q 176 810 8 673 q 541 949 345 949 l 484 678 q 327 619 399 678 q 237 478 256 561 z "},"=":{"ha":746,"x_min":36,"x_max":844,"o":"m 844 780 l 786 509 l 108 509 l 165 780 l 844 780 m 772 441 l 714 170 l 36 170 l 94 441 l 772 441 z "},">":{"ha":543,"x_min":0,"x_max":575,"o":"m 439 472 l 575 472 q 366 139 532 277 q 0 0 197 0 l 58 271 q 214 331 142 271 q 304 472 285 390 l 168 472 q 169 475 169 473 q 140 619 186 559 q 9 678 93 678 l 66 949 q 372 810 263 949 q 440 475 481 671 q 439 472 440 473 z "},"?":{"ha":814,"x_min":-35,"x_max":796,"o":"m 329 271 l 271 0 l 0 0 l 58 271 l 329 271 m 661 475 l 796 475 q 747 429 774 451 q 513 339 639 339 l 72 339 l 101 475 l -35 475 l -6 610 l 435 610 q 461 620 449 610 q 476 644 473 630 q 471 668 479 659 q 450 678 464 678 l 9 678 l 66 949 l 507 949 q 704 860 633 949 q 747 644 774 770 q 661 475 727 549 z "},"@":{"ha":1017,"x_min":-34,"x_max":1051,"o":"m 780 478 l 644 478 q 614 619 661 561 q 484 678 568 678 q 327 619 399 678 q 237 478 256 561 l 373 478 q 372 475 373 477 q 401 331 354 391 q 532 271 448 271 q 689 331 616 271 q 779 475 761 391 q 780 478 780 477 m 102 478 l -34 478 q 176 810 8 673 q 541 949 345 949 q 847 810 738 949 q 916 478 956 673 l 1051 478 q 1050 475 1051 477 q 840 139 1008 278 q 475 0 671 0 q 169 139 278 0 q 101 475 59 278 q 102 478 102 477 z "},"A":{"ha":882,"x_min":-27,"x_max":841,"o":"m 347 475 l 402 475 l 397 575 l 347 475 m 484 475 l 417 339 l 545 339 l 538 475 l 484 475 m 680 475 l 817 475 l 841 0 l 563 0 l 559 68 l 284 68 l 251 1 l -27 1 l 206 475 l 70 475 l 303 949 l 656 949 l 680 475 z "},"B":{"ha":814,"x_min":-35,"x_max":830,"o":"m 343 339 l 329 271 l 498 271 q 525 281 513 271 q 540 305 536 291 q 535 329 543 319 q 513 339 527 339 l 343 339 m 280 678 l 265 610 l 435 610 q 461 620 449 610 q 476 644 473 630 q 471 668 479 659 q 450 678 464 678 l 280 678 m 662 472 l 798 472 q 811 305 830 398 q 675 90 784 179 q 441 0 567 0 l 0 0 l 100 472 l -35 472 l 66 949 l 507 949 q 704 860 633 949 q 747 644 774 770 q 661 475 727 549 q 662 472 661 473 z "},"C":{"ha":1017,"x_min":-35,"x_max":1042,"o":"m 237 475 l 372 475 l 372 475 q 401 331 354 391 q 532 271 448 271 q 689 331 616 271 q 769 441 747 378 l 1042 441 q 840 139 994 266 q 475 0 671 0 q 169 139 278 0 q 101 475 59 278 l 101 475 l -35 475 q 176 810 7 671 q 541 949 345 949 q 847 810 738 949 q 920 509 947 684 l 648 509 q 614 619 652 572 q 484 678 568 678 q 327 619 399 678 q 237 475 254 559 z "},"D":{"ha":814,"x_min":-35,"x_max":847,"o":"m 237 475 l 372 475 l 329 271 q 485 331 413 271 q 576 475 557 391 l 576 475 l 440 475 q 411 619 458 559 q 280 678 364 678 l 237 475 m 711 475 l 847 475 l 847 475 q 636 139 805 278 q 271 0 468 0 l 0 0 l 101 475 l -35 475 l 66 949 l 338 949 q 644 810 534 949 q 711 475 753 671 z "},"E":{"ha":543,"x_min":-35,"x_max":576,"o":"m 440 475 l 576 475 l 547 339 l 343 339 l 329 271 l 532 271 l 475 0 l 0 0 l 101 475 l -35 475 l 66 949 l 541 949 l 484 678 l 280 678 l 265 610 l 469 610 l 440 475 z "},"F":{"ha":543,"x_min":-35,"x_max":576,"o":"m 440 475 l 576 475 l 547 339 l 343 339 l 271 0 l 0 0 l 101 475 l -35 475 l 66 949 l 541 949 l 484 678 l 280 678 l 265 610 l 469 610 l 440 475 z "},"G":{"ha":882,"x_min":-34,"x_max":916,"o":"m 373 478 q 372 475 373 477 q 401 331 354 391 q 532 271 448 271 l 600 271 l 614 339 l 479 339 l 509 478 l 373 478 m 373 478 l 401 610 l 808 610 l 780 478 l 916 478 l 814 0 l 475 0 q 169 139 278 0 q 101 475 59 278 q 102 478 102 477 l -34 478 q 176 810 8 673 q 541 949 345 949 l 880 949 l 823 678 l 484 678 q 327 619 399 678 q 237 478 256 561 l 373 478 z "},"H":{"ha":814,"x_min":-35,"x_max":847,"o":"m 711 475 l 847 475 l 746 0 l 475 0 l 547 339 l 343 339 l 271 0 l 0 0 l 101 475 l -35 475 l 66 949 l 338 949 l 265 610 l 469 610 l 541 949 l 812 949 l 711 475 z "},"I":{"ha":339,"x_min":-35,"x_max":372,"o":"m 236 472 l 372 472 l 271 0 l 0 0 l 100 472 l -35 472 l 66 949 l 338 949 l 236 472 z "},"J":{"ha":746,"x_min":42,"x_max":780,"o":"m 509 478 l 373 478 l 473 949 l 745 949 l 644 478 l 780 478 l 750 339 q 600 99 720 199 q 339 0 479 0 q 120 99 199 0 q 72 339 42 199 l 87 407 l 358 407 l 343 339 q 353 291 338 311 q 397 271 369 271 q 449 291 425 271 q 479 339 473 311 l 509 478 z "},"K":{"ha":882,"x_min":-35,"x_max":914,"o":"m 530 472 l 665 472 l 848 0 l 536 0 l 365 441 l 271 0 l 0 0 l 100 472 l -35 472 l 66 949 l 338 949 l 243 509 l 602 949 l 914 949 l 528 475 l 530 472 z "},"L":{"ha":543,"x_min":-35,"x_max":532,"o":"m 237 475 l 372 475 l 329 271 l 532 271 l 475 0 l 0 0 l 101 475 l -35 475 l 66 949 l 338 949 l 237 475 z "},"M":{"ha":1017,"x_min":-35,"x_max":1050,"o":"m 101 475 l -35 475 l 66 949 l 338 949 l 440 475 l 441 475 l 745 949 l 1016 949 l 915 475 l 1050 475 l 949 0 l 678 0 l 779 475 l 475 0 l 372 475 l 271 0 l 0 0 l 101 475 z "},"N":{"ha":814,"x_min":-35,"x_max":846,"o":"m 372 472 l 271 0 l 0 0 l 100 472 l -35 472 l 66 949 l 338 949 l 440 475 l 541 949 l 812 949 l 711 472 l 846 472 l 746 0 l 475 0 l 373 472 l 372 472 z "},"O":{"ha":1017,"x_min":-34,"x_max":1051,"o":"m 780 478 l 644 478 q 614 619 661 561 q 484 678 568 678 q 327 619 399 678 q 237 478 256 561 l 373 478 q 372 475 373 477 q 401 331 354 391 q 532 271 448 271 q 689 331 616 271 q 779 475 761 391 q 780 478 780 477 m 102 478 l -34 478 q 176 810 8 673 q 541 949 345 949 q 847 810 738 949 q 916 478 956 673 l 1051 478 q 1050 475 1051 477 q 840 139 1008 278 q 475 0 671 0 q 169 139 278 0 q 101 475 59 278 q 102 478 102 477 z "},"P":{"ha":814,"x_min":-35,"x_max":796,"o":"m 280 678 l 265 610 l 435 610 q 461 620 449 610 q 476 644 473 630 q 471 668 479 659 q 450 678 464 678 l 280 678 m 661 475 l 796 475 q 747 429 774 451 q 513 339 639 339 l 343 339 l 271 0 l 0 0 l 101 475 l -35 475 l 66 949 l 507 949 q 704 860 633 949 q 747 644 774 770 q 661 475 727 549 z "},"Q":{"ha":1017,"x_min":-34,"x_max":1051,"o":"m 780 478 l 644 478 q 614 619 661 561 q 484 678 568 678 q 327 619 399 678 q 237 478 256 561 l 373 478 q 372 475 373 477 q 401 331 354 391 q 532 271 448 271 q 689 331 616 271 q 779 475 761 391 q 780 478 780 477 m 102 478 l -34 478 q 176 810 8 673 q 541 949 345 949 q 847 810 738 949 q 916 478 956 673 l 1051 478 q 1050 475 1051 477 q 840 139 1008 278 q 614 18 733 51 l 581 -136 l 310 -136 l 343 18 q 169 139 238 51 q 101 475 59 278 q 102 478 102 477 z "},"R":{"ha":814,"x_min":-35,"x_max":796,"o":"m 280 678 l 265 610 l 435 610 q 461 620 449 610 q 476 644 473 630 q 471 668 479 659 q 450 678 464 678 l 280 678 m 661 475 l 796 475 q 747 429 774 451 q 680 382 715 401 l 746 0 l 454 0 l 395 339 l 343 339 l 271 0 l 0 0 l 101 475 l -35 475 l 66 949 l 507 949 q 704 860 633 949 q 747 644 774 770 q 661 475 727 549 z "},"S":{"ha":814,"x_min":-19,"x_max":831,"o":"m 659 478 l 794 478 q 811 305 831 403 q 675 90 784 179 q 441 0 567 0 l 0 0 l 58 271 l 498 271 q 525 281 513 271 q 540 305 536 291 q 535 329 543 319 q 513 339 527 339 l 377 339 q 180 429 251 339 q 150 478 162 452 l 14 478 q 1 644 -19 551 q 137 860 28 770 q 372 949 245 949 l 812 949 l 755 678 l 314 678 q 288 668 300 678 q 273 644 275 659 q 277 620 269 630 q 299 610 285 610 l 435 610 q 631 521 561 610 q 659 478 648 500 z "},"T":{"ha":746,"x_min":9,"x_max":745,"o":"m 439 472 l 575 472 l 475 0 l 203 0 l 304 472 l 168 472 l 212 678 l 9 678 l 66 949 l 745 949 l 687 678 l 484 678 l 439 472 z "},"U":{"ha":746,"x_min":-35,"x_max":779,"o":"m 101 475 l -35 475 l 66 949 l 338 949 l 237 475 l 372 475 l 473 949 l 745 949 l 644 475 l 779 475 l 750 339 q 600 99 720 199 q 339 0 479 0 q 120 99 199 0 q 72 339 42 199 l 101 475 m 372 475 l 343 339 q 353 291 338 311 q 397 271 369 271 q 449 291 425 271 q 479 339 473 311 l 508 475 l 372 475 z "},"V":{"ha":882,"x_min":39,"x_max":907,"o":"m 484 475 l 490 374 l 538 475 l 484 475 m 205 475 l 70 475 l 39 949 l 317 949 l 348 475 l 403 475 l 629 949 l 907 949 l 681 475 l 817 475 l 590 0 l 237 0 l 205 475 z "},"W":{"ha":1492,"x_min":39,"x_max":1518,"o":"m 484 475 l 490 374 l 538 475 l 484 475 m 1013 475 l 1240 949 l 1518 949 l 1291 475 l 1427 475 l 1200 0 l 848 0 l 817 475 l 590 0 l 237 0 l 205 475 l 70 475 l 39 949 l 317 949 l 348 475 l 403 475 l 629 949 l 907 949 l 907 949 l 927 949 l 958 475 l 1013 475 m 1149 475 l 1094 475 l 1101 374 l 1149 475 z "},"X":{"ha":882,"x_min":-34,"x_max":914,"o":"m 530 472 l 665 472 l 848 0 l 536 0 l 452 215 l 278 0 l -34 0 l 350 472 l 214 472 l 216 475 l 33 949 l 345 949 l 427 734 l 602 949 l 914 949 l 528 475 l 530 472 z "},"Y":{"ha":882,"x_min":33,"x_max":914,"o":"m 304 475 l 169 475 l 33 949 l 345 949 l 418 692 l 602 949 l 914 949 l 576 475 l 711 475 l 614 340 l 543 0 l 271 0 l 343 340 l 304 475 z "},"Z":{"ha":814,"x_min":0,"x_max":812,"o":"m 495 475 l 631 475 l 494 271 l 804 271 l 746 0 l 0 0 l 319 475 l 183 475 l 319 678 l 9 678 l 66 949 l 812 949 l 495 475 z "},"[":{"ha":543,"x_min":-35,"x_max":541,"o":"m 236 472 l 372 472 l 329 271 l 532 271 l 475 0 l 0 0 l 100 472 l -35 472 l 66 949 l 541 949 l 484 678 l 280 678 l 236 472 z "},"\\":{"ha":814,"x_min":27,"x_max":785,"o":"m 317 478 l 181 478 l 27 1085 l 339 1085 l 493 478 l 629 478 l 785 -136 l 473 -136 l 317 478 z "},"]":{"ha":543,"x_min":0,"x_max":576,"o":"m 304 475 l 169 475 l 212 678 l 9 678 l 66 949 l 541 949 l 440 475 l 576 475 l 475 0 l 0 0 l 58 271 l 261 271 l 304 475 z "},"^":{"ha":1017,"x_min":0,"x_max":947,"o":"m 458 947 l 480 947 q 863 743 707 947 q 947 486 947 616 l 947 458 q 751 87 947 245 q 488 0 620 0 l 467 0 q 84 203 239 0 q 0 461 0 330 l 0 488 q 195 860 0 701 q 458 947 327 947 m 65 597 l 68 597 q 803 594 534 594 l 882 594 q 684 841 818 773 q 483 898 590 898 l 461 898 q 144 743 279 898 q 65 597 84 667 m 450 849 q 469 830 467 830 l 491 849 q 513 827 494 849 q 494 808 509 827 l 494 806 q 513 787 494 802 q 532 806 513 791 l 534 806 q 553 787 538 806 l 553 784 q 534 765 553 780 l 532 765 l 510 784 q 494 765 510 783 q 513 741 513 745 l 491 722 l 469 741 l 448 722 l 429 743 l 448 765 l 429 784 l 407 765 q 385 787 404 765 l 407 806 l 429 787 l 448 808 q 429 827 444 808 q 450 849 429 831 m 469 827 l 450 806 l 472 787 q 488 806 472 788 l 488 808 q 469 827 488 812 m 469 784 l 450 762 l 469 746 q 488 765 473 746 q 469 784 488 769 m 217 684 l 225 684 l 244 678 l 244 673 l 239 665 q 217 667 224 667 q 206 651 206 665 q 220 635 206 640 q 239 640 237 640 l 247 629 q 222 618 238 623 q 187 651 187 625 q 217 684 193 684 m 252 684 l 266 684 q 271 678 271 683 l 271 659 l 290 659 l 290 684 l 309 684 l 309 621 l 290 621 l 290 643 l 271 643 l 271 621 l 252 621 l 252 684 m 323 684 l 366 684 l 366 667 l 336 667 l 336 659 l 366 659 l 366 648 q 361 643 366 643 l 355 646 l 350 643 l 336 646 l 336 637 l 363 637 q 369 632 369 637 l 369 621 l 317 621 l 317 678 q 323 684 318 684 m 407 684 q 442 654 442 679 l 437 632 q 442 627 442 631 q 431 616 442 623 l 423 621 q 401 618 408 618 q 372 651 379 618 q 407 684 372 684 m 453 684 l 461 684 q 467 678 467 683 l 467 651 q 475 635 469 635 l 480 635 q 488 643 484 635 l 488 678 l 491 684 l 496 681 l 499 681 l 505 684 l 507 678 l 507 646 q 480 618 504 618 l 475 618 q 448 651 450 618 l 448 678 q 453 684 448 684 m 518 684 l 524 684 l 540 681 q 548 684 545 684 q 556 681 553 681 q 564 684 562 684 l 564 670 q 559 665 564 665 q 548 667 554 667 l 548 665 l 543 667 l 534 667 l 534 659 l 564 659 l 564 648 q 559 643 564 643 l 534 643 l 534 635 l 543 635 q 545 637 545 635 l 551 635 l 556 635 q 559 637 559 635 q 567 635 564 635 l 567 621 l 553 621 l 537 618 q 524 621 532 621 l 524 618 q 515 621 518 621 l 515 670 l 518 684 m 578 684 l 597 681 l 597 684 q 629 662 629 679 q 616 643 627 643 l 632 621 l 627 618 l 616 618 q 594 640 614 618 l 591 640 l 591 629 l 594 624 l 589 621 l 572 621 l 572 624 q 575 629 572 629 l 572 648 l 575 675 l 572 675 q 578 684 575 684 m 637 681 l 686 681 l 686 670 q 681 665 686 665 l 656 665 l 656 659 l 684 659 l 684 643 l 656 643 l 656 635 l 686 635 l 686 624 q 681 618 686 618 l 643 618 q 637 624 637 618 l 637 681 m 694 681 l 727 681 q 754 648 751 681 q 711 618 754 620 l 700 618 q 694 624 694 618 l 694 681 m 391 648 q 410 635 395 635 q 423 654 423 639 q 412 667 418 666 l 401 667 q 391 648 391 663 m 591 667 l 591 654 l 605 654 q 610 659 610 654 l 610 662 q 605 667 610 667 l 591 667 m 713 665 l 713 635 l 716 635 q 735 646 731 635 l 735 656 q 727 665 735 661 l 713 665 m 141 461 l 141 456 q 184 410 150 410 l 212 410 q 225 431 225 416 l 225 442 q 214 456 214 442 q 266 483 214 483 q 277 488 266 486 l 277 486 q 212 315 226 317 l 206 315 q 198 328 200 315 q 212 358 198 333 q 176 382 198 382 l 168 382 q 125 339 125 376 l 125 334 q 174 277 125 294 q 201 274 188 274 l 212 274 q 323 391 296 274 q 380 545 339 427 q 345 553 367 553 l 328 553 q 288 529 307 553 q 182 505 253 514 q 141 461 141 490 m 540 312 l 537 317 l 537 326 q 559 418 537 338 q 529 445 552 445 l 510 445 q 467 431 498 445 l 467 437 l 469 442 q 439 448 458 448 l 412 448 q 380 418 389 448 q 336 277 336 283 q 382 269 353 269 q 423 309 423 269 q 461 399 451 399 q 469 401 469 399 q 480 393 480 397 q 456 309 456 330 l 456 304 q 494 271 456 277 q 567 296 521 271 l 562 279 q 600 269 572 269 q 646 290 646 269 q 697 399 661 399 l 705 399 q 711 393 711 398 l 711 391 q 675 355 711 372 l 673 342 q 730 271 673 271 q 827 345 789 271 l 817 353 l 811 353 q 757 312 787 312 l 751 312 q 735 336 735 319 l 735 347 l 773 372 q 787 410 787 397 l 787 415 q 746 448 787 443 q 689 431 735 448 q 686 434 689 434 q 727 543 727 538 q 686 551 714 551 l 662 551 q 635 505 642 551 q 581 345 627 496 q 540 312 550 312 m 141 212 l 141 209 q 464 49 279 49 l 486 49 q 789 187 656 49 q 806 209 806 206 q 298 212 465 212 l 141 212 m 350 165 l 377 165 l 377 160 l 355 160 l 355 146 l 377 146 l 377 141 l 355 141 l 355 130 l 374 130 q 380 125 380 130 l 350 125 l 350 165 m 393 165 l 407 165 q 415 157 411 165 l 412 157 l 396 160 q 391 155 391 159 l 391 149 q 418 136 418 146 q 399 122 414 122 q 382 133 382 127 l 388 136 q 401 127 388 130 l 412 133 q 385 146 412 141 l 385 157 q 393 165 385 161 m 418 165 l 450 165 l 450 160 l 437 160 l 437 125 l 431 125 l 431 160 l 418 160 l 418 165 m 486 165 q 502 155 494 165 q 475 138 502 142 l 472 133 q 477 127 473 127 l 499 127 l 499 122 l 480 122 l 467 125 l 467 127 q 486 146 467 146 l 494 146 q 496 155 494 149 l 488 160 l 480 160 l 469 152 l 469 157 q 486 165 472 165 m 524 165 l 526 165 q 537 155 530 165 l 537 133 q 518 122 533 122 q 505 141 505 126 l 505 146 q 524 165 505 165 m 556 165 l 556 127 l 564 127 q 559 122 564 122 l 545 122 l 545 127 l 551 127 l 551 157 l 545 157 l 545 163 q 556 165 551 163 m 570 165 l 594 165 q 600 160 600 165 l 575 160 l 575 149 l 591 149 q 602 136 597 148 q 583 122 598 122 q 570 130 570 124 l 570 136 l 581 127 l 589 127 q 597 136 593 127 q 589 144 597 140 l 570 144 l 570 165 m 510 152 l 510 136 q 518 127 510 132 l 524 127 q 532 136 528 127 l 532 152 q 524 160 532 156 l 518 160 q 510 152 514 160 z "},"_":{"ha":746,"x_min":0,"x_max":736,"o":"m 736 271 l 678 0 l 0 0 l 58 271 l 736 271 z "},"`":{"ha":339,"x_min":9,"x_max":338,"o":"m 338 949 l 251 543 l 9 678 l 66 949 l 338 949 z "},"a":{"ha":882,"x_min":-27,"x_max":841,"o":"m 347 475 l 402 475 l 397 575 l 347 475 m 484 475 l 417 339 l 545 339 l 538 475 l 484 475 m 680 475 l 817 475 l 841 0 l 563 0 l 559 68 l 284 68 l 251 1 l -27 1 l 206 475 l 70 475 l 303 949 l 656 949 l 680 475 z "},"b":{"ha":814,"x_min":-35,"x_max":830,"o":"m 343 339 l 329 271 l 498 271 q 525 281 513 271 q 540 305 536 291 q 535 329 543 319 q 513 339 527 339 l 343 339 m 280 678 l 265 610 l 435 610 q 461 620 449 610 q 476 644 473 630 q 471 668 479 659 q 450 678 464 678 l 280 678 m 662 472 l 798 472 q 811 305 830 398 q 675 90 784 179 q 441 0 567 0 l 0 0 l 100 472 l -35 472 l 66 949 l 507 949 q 704 860 633 949 q 747 644 774 770 q 661 475 727 549 q 662 472 661 473 z "},"c":{"ha":1017,"x_min":-35,"x_max":1042,"o":"m 237 475 l 372 475 l 372 475 q 401 331 354 391 q 532 271 448 271 q 689 331 616 271 q 769 441 747 378 l 1042 441 q 840 139 994 266 q 475 0 671 0 q 169 139 278 0 q 101 475 59 278 l 101 475 l -35 475 q 176 810 7 671 q 541 949 345 949 q 847 810 738 949 q 920 509 947 684 l 648 509 q 614 619 652 572 q 484 678 568 678 q 327 619 399 678 q 237 475 254 559 z "},"d":{"ha":814,"x_min":-35,"x_max":847,"o":"m 237 475 l 372 475 l 329 271 q 485 331 413 271 q 576 475 557 391 l 576 475 l 440 475 q 411 619 458 559 q 280 678 364 678 l 237 475 m 711 475 l 847 475 l 847 475 q 636 139 805 278 q 271 0 468 0 l 0 0 l 101 475 l -35 475 l 66 949 l 338 949 q 644 810 534 949 q 711 475 753 671 z "},"e":{"ha":543,"x_min":-35,"x_max":576,"o":"m 440 475 l 576 475 l 547 339 l 343 339 l 329 271 l 532 271 l 475 0 l 0 0 l 101 475 l -35 475 l 66 949 l 541 949 l 484 678 l 280 678 l 265 610 l 469 610 l 440 475 z "},"f":{"ha":543,"x_min":-35,"x_max":576,"o":"m 440 475 l 576 475 l 547 339 l 343 339 l 271 0 l 0 0 l 101 475 l -35 475 l 66 949 l 541 949 l 484 678 l 280 678 l 265 610 l 469 610 l 440 475 z "},"g":{"ha":882,"x_min":-34,"x_max":916,"o":"m 373 478 q 372 475 373 477 q 401 331 354 391 q 532 271 448 271 l 600 271 l 614 339 l 479 339 l 509 478 l 373 478 m 373 478 l 401 610 l 808 610 l 780 478 l 916 478 l 814 0 l 475 0 q 169 139 278 0 q 101 475 59 278 q 102 478 102 477 l -34 478 q 176 810 8 673 q 541 949 345 949 l 880 949 l 823 678 l 484 678 q 327 619 399 678 q 237 478 256 561 l 373 478 z "},"h":{"ha":814,"x_min":-35,"x_max":847,"o":"m 711 475 l 847 475 l 746 0 l 475 0 l 547 339 l 343 339 l 271 0 l 0 0 l 101 475 l -35 475 l 66 949 l 338 949 l 265 610 l 469 610 l 541 949 l 812 949 l 711 475 z "},"i":{"ha":339,"x_min":-35,"x_max":372,"o":"m 236 472 l 372 472 l 271 0 l 0 0 l 100 472 l -35 472 l 66 949 l 338 949 l 236 472 z "},"j":{"ha":746,"x_min":42,"x_max":780,"o":"m 509 478 l 373 478 l 473 949 l 745 949 l 644 478 l 780 478 l 750 339 q 600 99 720 199 q 339 0 479 0 q 120 99 199 0 q 72 339 42 199 l 87 407 l 358 407 l 343 339 q 353 291 338 311 q 397 271 369 271 q 449 291 425 271 q 479 339 473 311 l 509 478 z "},"k":{"ha":882,"x_min":-35,"x_max":914,"o":"m 530 472 l 665 472 l 848 0 l 536 0 l 365 441 l 271 0 l 0 0 l 100 472 l -35 472 l 66 949 l 338 949 l 243 509 l 602 949 l 914 949 l 528 475 l 530 472 z "},"l":{"ha":543,"x_min":-35,"x_max":532,"o":"m 237 475 l 372 475 l 329 271 l 532 271 l 475 0 l 0 0 l 101 475 l -35 475 l 66 949 l 338 949 l 237 475 z "},"m":{"ha":1017,"x_min":-35,"x_max":1050,"o":"m 101 475 l -35 475 l 66 949 l 338 949 l 440 475 l 441 475 l 745 949 l 1016 949 l 915 475 l 1050 475 l 949 0 l 678 0 l 779 475 l 475 0 l 372 475 l 271 0 l 0 0 l 101 475 z "},"n":{"ha":814,"x_min":-35,"x_max":846,"o":"m 372 472 l 271 0 l 0 0 l 100 472 l -35 472 l 66 949 l 338 949 l 440 475 l 541 949 l 812 949 l 711 472 l 846 472 l 746 0 l 475 0 l 373 472 l 372 472 z "},"o":{"ha":1017,"x_min":-34,"x_max":1051,"o":"m 780 478 l 644 478 q 614 619 661 561 q 484 678 568 678 q 327 619 399 678 q 237 478 256 561 l 373 478 q 372 475 373 477 q 401 331 354 391 q 532 271 448 271 q 689 331 616 271 q 779 475 761 391 q 780 478 780 477 m 102 478 l -34 478 q 176 810 8 673 q 541 949 345 949 q 847 810 738 949 q 916 478 956 673 l 1051 478 q 1050 475 1051 477 q 840 139 1008 278 q 475 0 671 0 q 169 139 278 0 q 101 475 59 278 q 102 478 102 477 z "},"p":{"ha":814,"x_min":-35,"x_max":796,"o":"m 280 678 l 265 610 l 435 610 q 461 620 449 610 q 476 644 473 630 q 471 668 479 659 q 450 678 464 678 l 280 678 m 661 475 l 796 475 q 747 429 774 451 q 513 339 639 339 l 343 339 l 271 0 l 0 0 l 101 475 l -35 475 l 66 949 l 507 949 q 704 860 633 949 q 747 644 774 770 q 661 475 727 549 z "},"q":{"ha":1017,"x_min":-34,"x_max":1051,"o":"m 780 478 l 644 478 q 614 619 661 561 q 484 678 568 678 q 327 619 399 678 q 237 478 256 561 l 373 478 q 372 475 373 477 q 401 331 354 391 q 532 271 448 271 q 689 331 616 271 q 779 475 761 391 q 780 478 780 477 m 102 478 l -34 478 q 176 810 8 673 q 541 949 345 949 q 847 810 738 949 q 916 478 956 673 l 1051 478 q 1050 475 1051 477 q 840 139 1008 278 q 614 18 733 51 l 581 -136 l 310 -136 l 343 18 q 169 139 238 51 q 101 475 59 278 q 102 478 102 477 z "},"r":{"ha":814,"x_min":-35,"x_max":796,"o":"m 280 678 l 265 610 l 435 610 q 461 620 449 610 q 476 644 473 630 q 471 668 479 659 q 450 678 464 678 l 280 678 m 661 475 l 796 475 q 747 429 774 451 q 680 382 715 401 l 746 0 l 454 0 l 395 339 l 343 339 l 271 0 l 0 0 l 101 475 l -35 475 l 66 949 l 507 949 q 704 860 633 949 q 747 644 774 770 q 661 475 727 549 z "},"s":{"ha":814,"x_min":-19,"x_max":831,"o":"m 659 478 l 794 478 q 811 305 831 403 q 675 90 784 179 q 441 0 567 0 l 0 0 l 58 271 l 498 271 q 525 281 513 271 q 540 305 536 291 q 535 329 543 319 q 513 339 527 339 l 377 339 q 180 429 251 339 q 150 478 162 452 l 14 478 q 1 644 -19 551 q 137 860 28 770 q 372 949 245 949 l 812 949 l 755 678 l 314 678 q 288 668 300 678 q 273 644 275 659 q 277 620 269 630 q 299 610 285 610 l 435 610 q 631 521 561 610 q 659 478 648 500 z "},"t":{"ha":746,"x_min":9,"x_max":745,"o":"m 439 472 l 575 472 l 475 0 l 203 0 l 304 472 l 168 472 l 212 678 l 9 678 l 66 949 l 745 949 l 687 678 l 484 678 l 439 472 z "},"u":{"ha":746,"x_min":-35,"x_max":779,"o":"m 101 475 l -35 475 l 66 949 l 338 949 l 237 475 l 372 475 l 473 949 l 745 949 l 644 475 l 779 475 l 750 339 q 600 99 720 199 q 339 0 479 0 q 120 99 199 0 q 72 339 42 199 l 101 475 m 372 475 l 343 339 q 353 291 338 311 q 397 271 369 271 q 449 291 425 271 q 479 339 473 311 l 508 475 l 372 475 z "},"v":{"ha":882,"x_min":39,"x_max":907,"o":"m 484 475 l 490 374 l 538 475 l 484 475 m 205 475 l 70 475 l 39 949 l 317 949 l 348 475 l 403 475 l 629 949 l 907 949 l 681 475 l 817 475 l 590 0 l 237 0 l 205 475 z "},"w":{"ha":1492,"x_min":39,"x_max":1518,"o":"m 484 475 l 490 374 l 538 475 l 484 475 m 1013 475 l 1240 949 l 1518 949 l 1291 475 l 1427 475 l 1200 0 l 848 0 l 817 475 l 590 0 l 237 0 l 205 475 l 70 475 l 39 949 l 317 949 l 348 475 l 403 475 l 629 949 l 907 949 l 907 949 l 927 949 l 958 475 l 1013 475 m 1149 475 l 1094 475 l 1101 374 l 1149 475 z "},"x":{"ha":882,"x_min":-34,"x_max":914,"o":"m 530 472 l 665 472 l 848 0 l 536 0 l 452 215 l 278 0 l -34 0 l 350 472 l 214 472 l 216 475 l 33 949 l 345 949 l 427 734 l 602 949 l 914 949 l 528 475 l 530 472 z "},"y":{"ha":882,"x_min":33,"x_max":914,"o":"m 304 475 l 169 475 l 33 949 l 345 949 l 418 692 l 602 949 l 914 949 l 576 475 l 711 475 l 614 340 l 543 0 l 271 0 l 343 340 l 304 475 z "},"z":{"ha":814,"x_min":0,"x_max":812,"o":"m 495 475 l 631 475 l 494 271 l 804 271 l 746 0 l 0 0 l 319 475 l 183 475 l 319 678 l 9 678 l 66 949 l 812 949 l 495 475 z "},"{":{"ha":543,"x_min":-34,"x_max":541,"o":"m 237 478 l 373 478 q 372 475 373 477 q 401 331 354 391 q 532 271 448 271 l 475 0 q 169 139 278 0 q 101 475 59 278 q 102 478 102 477 l -34 478 q 176 810 8 673 q 541 949 345 949 l 484 678 q 327 619 399 678 q 237 478 256 561 z "},"|":{"ha":339,"x_min":-35,"x_max":372,"o":"m 236 472 l 372 472 l 271 0 l 0 0 l 100 472 l -35 472 l 66 949 l 338 949 l 236 472 z "},"}":{"ha":543,"x_min":0,"x_max":575,"o":"m 439 472 l 575 472 q 366 139 532 277 q 0 0 197 0 l 58 271 q 214 331 142 271 q 304 472 285 390 l 168 472 q 169 475 169 473 q 140 619 186 559 q 9 678 93 678 l 66 949 q 372 810 263 949 q 440 475 481 671 q 439 472 440 473 z "},"~":{"ha":543,"x_min":72,"x_max":604,"o":"m 604 610 l 547 339 l 72 339 l 130 610 l 604 610 z "}}}
